<?xml version="1.0" encoding="UTF-8" standalone="no"?>
<!-- Created with Inkscape (http://www.inkscape.org/) -->

<svg
   xmlns:dc="http://purl.org/dc/elements/1.1/"
   xmlns:cc="http://creativecommons.org/ns#"
   xmlns:rdf="http://www.w3.org/1999/02/22-rdf-syntax-ns#"
   xmlns:svg="http://www.w3.org/2000/svg"
   xmlns="http://www.w3.org/2000/svg"
   xmlns:sodipodi="http://sodipodi.sourceforge.net/DTD/sodipodi-0.dtd"
   xmlns:inkscape="http://www.inkscape.org/namespaces/inkscape"
   width="111.55841mm"
   height="111.55841mm"
   viewBox="0 0 395.28571 395.28571"
   id="svg2"
   version="1.1"
   inkscape:version="0.91 r13725"
   sodipodi:docname="mark-avatar.svg"
   inkscape:export-filename="/home/mark/mark-avatar.png"
   inkscape:export-xdpi="90"
   inkscape:export-ydpi="90">
  <defs
     id="defs4" />
  <sodipodi:namedview
     id="base"
     pagecolor="#ffffff"
     bordercolor="#666666"
     borderopacity="1.0"
     inkscape:pageopacity="0.0"
     inkscape:pageshadow="2"
     inkscape:zoom="1.4"
     inkscape:cx="321.99998"
     inkscape:cy="229.19179"
     inkscape:document-units="px"
     inkscape:current-layer="layer1"
     showgrid="false"
     inkscape:window-width="1920"
     inkscape:window-height="1010"
     inkscape:window-x="0"
     inkscape:window-y="0"
     inkscape:window-maximized="1"
     fit-margin-top="0"
     fit-margin-left="0"
     fit-margin-right="0"
     fit-margin-bottom="0" />
  <metadata
     id="metadata7">
    <rdf:RDF>
      <cc:Work
         rdf:about="">
        <dc:format>image/svg+xml</dc:format>
        <dc:type
           rdf:resource="http://purl.org/dc/dcmitype/StillImage" />
        <dc:title></dc:title>
      </cc:Work>
    </rdf:RDF>
  </metadata>
  <g
     inkscape:label="Layer 1"
     inkscape:groupmode="layer"
     id="layer1"
     transform="translate(1403.4784,-673.24742)">
    <rect
       style="fill:#cccccc;fill-opacity:1;stroke:#008080;stroke-width:1.14481747"
       id="rect4230"
       width="394.1409"
       height="394.1409"
       x="-1402.906"
       y="673.81982"
       ry="6.0078306" />
    <g
       id="g4160"
       transform="translate(-1.3543095e-6,-6.0000267)">
      <path
         d="m -1210.39,888.26245 c 2.6645,4.21163 -4.3626,5.66956 -7,4.42857 -7.1472,-3.36299 -6.1884,-13.27108 -1.8572,-18.42857 7.7477,-9.22553 22.0418,-7.29435 29.8572,0.71428 11.4694,11.75299 8.4624,30.94196 -3.2857,41.28572 -15.6584,13.78661 -39.8896,9.65867 -52.7143,-5.85714 -16.1386,-19.52506 -10.8699,-48.86011 8.4286,-64.14286 23.373,-18.50946 57.8436,-12.08986 75.5714,11 20.8916,27.21059 13.3153,66.83525 -13.5714,87 -31.0418,23.281 -75.8323,14.54443 -98.4286,-16.14285 -25.6754,-34.86883 -15.7761,-84.83311 18.7143,-109.85715 38.6929,-28.07319 93.8367,-17.00962 121.2857,21.28571 30.4736,42.51507 18.2445,102.84237 -23.8571,132.71429 -46.3357,32.87595 -111.8497,19.48051 -144.1429,-26.42856 -35.2799,-50.15499 -20.7173,-120.85819 29,-155.57144 53.9734,-37.68494 129.8677,-21.95478 167,31.57142 40.091,57.79118 23.1928,138.87811 -34.1429,178.42853 -61.6083,42.4978 -147.8891,24.4313 -189.8571,-36.71422 -44.9053,-65.42498 -25.6701,-156.90079 39.2857,-201.28573 69.2412,-47.31325 165.9129,-26.90918 212.7143,41.85713 49.7217,73.05716 28.1485,174.92538 -44.4286,224.14282"
         sodipodi:t0="0"
         sodipodi:argument="-30.409214"
         sodipodi:radius="165.66502"
         sodipodi:revolution="5"
         sodipodi:expansion="1"
         sodipodi:cy="888.26245"
         sodipodi:cx="-1210.39"
         id="path4198"
         style="fill:#008080;fill-rule:evenodd;stroke:#008080;stroke-width:1px;stroke-linecap:butt;stroke-linejoin:miter;stroke-opacity:1"
         sodipodi:type="spiral" />
      <path
         d="m -1217.7845,877.29248 c 2.6645,4.21163 -4.3627,5.66956 -7,4.42857 -7.1472,-3.36299 -6.1885,-13.27108 -1.8572,-18.42857 7.7476,-9.22553 22.0417,-7.29435 29.8572,0.71428 11.4694,11.75299 8.4624,30.94196 -3.2858,41.28572 -15.6583,13.7866 -39.8895,9.65867 -52.7142,-5.85714 -16.1386,-19.52506 -10.87,-48.86011 8.4285,-64.14286 23.3731,-18.50946 57.8437,-12.08986 75.5715,10.99999 20.8916,27.2106 13.3153,66.83526 -13.5715,87.00001 -31.0418,23.281 -75.8323,14.54443 -98.4285,-16.14285 -25.6754,-34.86883 -15.7761,-84.83311 18.7142,-109.85715 38.693,-28.07319 93.8367,-17.00962 121.2858,21.28571 30.4736,42.51507 18.2445,102.84237 -23.8572,132.71429 -46.3356,32.87598 -111.8496,19.48051 -144.1428,-26.42856 -35.2799,-50.15499 -20.7174,-120.85819 28.9999,-155.57144 53.9735,-37.68494 129.8678,-21.95478 167.0001,31.57142 40.0909,57.79117 23.1927,138.87811 -34.1429,178.42858 -61.6083,42.49782 -147.8892,24.43122 -189.8571,-36.71427 -44.9053,-65.42498 -25.6701,-156.90079 39.2857,-201.28573 69.2412,-47.31325 165.9128,-26.90918 212.7143,41.85713 49.7217,73.05716 28.1485,174.92538 -44.4286,224.14289"
         sodipodi:t0="0"
         sodipodi:argument="-30.409214"
         sodipodi:radius="165.66502"
         sodipodi:revolution="5"
         sodipodi:expansion="1"
         sodipodi:cy="877.29248"
         sodipodi:cx="-1217.7845"
         id="path4198-7"
         style="fill:#00c4c4;fill-opacity:1;fill-rule:evenodd;stroke:#008080;stroke-width:1px;stroke-linecap:butt;stroke-linejoin:miter;stroke-opacity:1"
         sodipodi:type="spiral" />
    </g>
  </g>
</svg>
